<?xml version="1.0" encoding="UTF-8" standalone="no"?>
<!-- Generator: Adobe Illustrator 19.0.0, SVG Export Plug-In . SVG Version: 6.00 Build 0)  -->

<svg
   version="1.1"
   id="Layer_1"
   x="0px"
   y="0px"
   viewBox="0 0 504 504"
   style="enable-background:new 0 0 504 504;"
   xml:space="preserve"
   sodipodi:docname="logo.svg"
   inkscape:export-filename="/Users/remi/Documents/projects/mangabox/assets/images/logo.png"
   inkscape:export-xdpi="195.04762"
   inkscape:export-ydpi="195.04762"
   inkscape:version="1.1.1 (c3084ef, 2021-09-22)"
   xmlns:inkscape="http://www.inkscape.org/namespaces/inkscape"
   xmlns:sodipodi="http://sodipodi.sourceforge.net/DTD/sodipodi-0.dtd"
   xmlns="http://www.w3.org/2000/svg"
   xmlns:svg="http://www.w3.org/2000/svg"><defs
   id="defs904" /><sodipodi:namedview
   id="namedview902"
   pagecolor="#505050"
   bordercolor="#ffffff"
   borderopacity="1"
   inkscape:pageshadow="0"
   inkscape:pageopacity="0"
   inkscape:pagecheckerboard="1"
   showgrid="false"
   inkscape:zoom="1.5912698"
   inkscape:cx="247.91521"
   inkscape:cy="273.99501"
   inkscape:window-width="1792"
   inkscape:window-height="982"
   inkscape:window-x="0"
   inkscape:window-y="25"
   inkscape:window-maximized="1"
   inkscape:current-layer="Layer_1" />


<path
   style="fill:#272B2B;"
   d="M263.2,219.2c0,4.8-3.2,8-8,8h-6.4c-4.8,0-8-3.2-8-8V184c0-4.8,3.2-8,8-8h6.4c4.8,0,8,3.2,8,8V219.2z  "
   id="path801" />
<path
   style="fill:#4A4F4F;"
   d="M263.2,194.4c0,4.8-3.2,8-8,8h-6.4c-4.8,0-8-3.2-8-8v-35.2c0-4.8,3.2-8,8-8h6.4c4.8,0,8,3.2,8,8  V194.4z"
   id="path803" />
<path
   style="fill:#AF083F;"
   d="M186.4,457.6c0,4.8-3.2,8-8,8h-28.8c-4.8,0-8-3.2-8-8l8-292c0-4.8,3.2-8,8-8h12.8c4.8,0,8,3.2,8,8  L186.4,457.6z"
   id="path805" />
<path
   style="fill:#930035;"
   d="M149.6,165.6c0-4.8,3.2-8,8-8h12.8c4.8,0,8,3.2,8,8l8,292c0,4.8-3.2,8-8,8"
   id="path807" />
<path
   style="fill:#AF083F;"
   d="M153.6,444c0,2.4-2.4,4.8-4.8,4.8h-27.2c-2.4,0-4.8-2.4-4.8-4.8l0,0c0-2.4,2.4-4.8,4.8-4.8h27.2  C151.2,439.2,153.6,441.6,153.6,444L153.6,444z"
   id="path809" />
<g
   id="g815">
	<path
   style="fill:#272B2B;"
   d="M121.6,307.2c1.6,1.6,1.6,3.2,0,4.8l-5.6,5.6c-1.6,1.6-3.2,1.6-4.8,0l-5.6-5.6   c-1.6-1.6-1.6-3.2,0-4.8l5.6-5.6c1.6-1.6,3.2-1.6,4.8,0L121.6,307.2z"
   id="path811" />
	<path
   style="fill:#272B2B;"
   d="M125.6,327.2c0,3.2-2.4,5.6-5.6,5.6h-12.8c-3.2,0-5.6-2.4-5.6-5.6v-12.8c0-3.2,2.4-5.6,5.6-5.6H120   c3.2,0,5.6,2.4,5.6,5.6V327.2z"
   id="path813" />
</g>
<path
   style="fill:#AF083F;"
   d="M124.8,463.2c0,1.6-0.8,2.4-2.4,2.4h-16.8c-1.6,0-2.4-0.8-2.4-2.4V336c0-1.6,0.8-2.4,2.4-2.4h16.8  c1.6,0,2.4,0.8,2.4,2.4V463.2z"
   id="path817" />
<path
   style="fill:#930035;"
   d="M102.4,336c0-1.6,0.8-2.4,2.4-2.4h16.8c1.6,0,2.4,0.8,2.4,2.4v126.4c0,1.6-0.8,2.4-2.4,2.4"
   id="path819" />
<g
   id="g825">
	<path
   style="fill:#AF083F;"
   d="M132,332.8c0,1.6-1.6,2.4-2.4,2.4H99.2c-1.6,0-2.4-1.6-2.4-2.4l0,0c0-1.6,1.6-2.4,2.4-2.4h30.4   C130.4,330.4,132,331.2,132,332.8L132,332.8z"
   id="path821" />
	<path
   style="fill:#AF083F;"
   d="M153.6,356.8c0,2.4-2.4,4.8-4.8,4.8h-27.2c-2.4,0-4.8-2.4-4.8-4.8l0,0c0-2.4,2.4-4.8,4.8-4.8h27.2   C151.2,351.2,153.6,353.6,153.6,356.8L153.6,356.8z"
   id="path823" />
</g>
<path
   style="fill:#272B2B;"
   d="M128,309.6c0,0.8-0.8,1.6-1.6,1.6h-24.8c-0.8,0-1.6-0.8-1.6-1.6l0,0c0-0.8,0.8-1.6,1.6-1.6h24.8  C127.2,307.2,128,308,128,309.6L128,309.6z"
   id="path827" />
<path
   style="fill:#AF083F;"
   d="M317.6,457.6c0,4.8,3.2,8,8,8h28.8c4.8,0,8-3.2,8-8l-8-292c0-4.8-3.2-8-8-8h-12.8c-4.8,0-8,3.2-8,8  L317.6,457.6z"
   id="path829" />
<path
   style="fill:#930035;"
   d="M354.4,165.6c0-4.8-3.2-8-8-8h-12.8c-4.8,0-8,3.2-8,8l-8,292c0,4.8,3.2,8,8,8"
   id="path831" />
<path
   style="fill:#AF083F;"
   d="M350.4,444c0,2.4,2.4,4.8,4.8,4.8h27.2c2.4,0,4.8-2.4,4.8-4.8l0,0c0-2.4-2.4-4.8-4.8-4.8h-27.2  C352.8,439.2,350.4,441.6,350.4,444L350.4,444z"
   id="path833" />
<g
   id="g839">
	<path
   style="fill:#272B2B;"
   d="M382.4,307.2c-1.6,1.6-1.6,3.2,0,4.8l5.6,5.6c1.6,1.6,3.2,1.6,4.8,0l5.6-5.6c1.6-1.6,1.6-3.2,0-4.8   l-5.6-5.6c-1.6-1.6-3.2-1.6-4.8,0L382.4,307.2z"
   id="path835" />
	<path
   style="fill:#272B2B;"
   d="M378.4,327.2c0,3.2,2.4,5.6,5.6,5.6h12.8c3.2,0,5.6-2.4,5.6-5.6v-12.8c0-3.2-2.4-5.6-5.6-5.6H384   c-3.2,0-5.6,2.4-5.6,5.6V327.2z"
   id="path837" />
</g>
<path
   style="fill:#AF083F;"
   d="M379.2,463.2c0,1.6,0.8,2.4,2.4,2.4h16.8c1.6,0,2.4-0.8,2.4-2.4V336c0-1.6-1.6-2.4-2.4-2.4h-16.8  c-1.6,0-2.4,0.8-2.4,2.4V463.2z"
   id="path841" />
<path
   style="fill:#930035;"
   d="M401.6,336c0-1.6-1.6-2.4-2.4-2.4h-16.8c-1.6,0-2.4,0.8-2.4,2.4v126.4c0,1.6,0.8,2.4,2.4,2.4"
   id="path843" />
<g
   id="g849">
	<path
   style="fill:#AF083F;"
   d="M372,332.8c0,1.6,1.6,2.4,2.4,2.4h30.4c1.6,0,2.4-1.6,2.4-2.4l0,0c0-1.6-1.6-2.4-2.4-2.4h-30.4   C373.6,330.4,372,331.2,372,332.8L372,332.8z"
   id="path845" />
	<path
   style="fill:#AF083F;"
   d="M350.4,356.8c0,2.4,2.4,4.8,4.8,4.8h27.2c2.4,0,4.8-2.4,4.8-4.8l0,0c0-2.4-2.4-4.8-4.8-4.8h-27.2   C352.8,351.2,350.4,353.6,350.4,356.8L350.4,356.8z"
   id="path847" />
</g>
<path
   style="fill:#272B2B;"
   d="M376,309.6c0,0.8,0.8,1.6,1.6,1.6h24.8c0.8,0,1.6-0.8,1.6-1.6l0,0c0-0.8-0.8-1.6-1.6-1.6h-24.8  C376.8,307.2,376,308,376,309.6L376,309.6z"
   id="path851" />
<path
   style="fill:#D8164E;"
   d="M252,188.8L252,188.8c-86.4,0-168-33.6-229.6-95.2l27.2-27.2c53.6,53.6,125.6,84,202.4,84  c76,0,148-29.6,202.4-84l27.2,27.2C420,155.2,338.4,188.8,252,188.8z"
   id="path853" />
<path
   style="fill:#AF083F;"
   d="M252,149.6c-76,0-148-29.6-202.4-84L32,84c60,56,137.6,86.4,220,86.4l0,0c82.4,0,160-30.4,220-86.4  l-18.4-18.4C400,120,328,149.6,252,149.6z"
   id="path855" />
<path
   style="fill:#272B2B;"
   d="M252,153.6L252,153.6c-95.2,0-184.8-36.8-252-104l30.4-30.4c59.2,59.2,138.4,92,221.6,92  c84,0,162.4-32.8,221.6-92L504,49.6C436.8,116.8,347.2,153.6,252,153.6z"
   id="path857" />
<path
   style="fill:#4A4F4F;"
   d="M252,111.2c-84,0-162.4-32.8-221.6-92l-20,20C76,100,161.6,133.6,252,133.6l0,0  c90.4,0,176-33.6,241.6-94.4l-20-20C414.4,78.4,336,111.2,252,111.2z"
   id="path859" />
<path
   style="fill:#AF083F;"
   d="M400,221.6c0,4.8-3.2,8-8,8H112c-4.8,0-8-3.2-8-8v-4c0-4.8,3.2-8,8-8h280c4.8,0,8,3.2,8,8V221.6z"
   id="path861" />
<path
   style="fill:#D8164E;"
   d="M112,209.6c-4,0-6.4,2.4-7.2,5.6c0.8,3.2,4,5.6,7.2,5.6h280c4,0,6.4-2.4,7.2-5.6  c-0.8-3.2-4-5.6-7.2-5.6H112z"
   id="path863" />
<path
   style="fill:#AF083F;"
   d="M400,266.4c0,4.8-3.2,8-8,8H112c-4.8,0-8-3.2-8-8v-4c0-4.8,3.2-8,8-8h280c4.8,0,8,3.2,8,8V266.4z"
   id="path865" />
<path
   style="fill:#D8164E;"
   d="M112,254.4c-4,0-6.4,2.4-7.2,5.6c0.8,3.2,4,5.6,7.2,5.6h280c4,0,6.4-2.4,7.2-5.6  c-0.8-3.2-4-5.6-7.2-5.6H112z"
   id="path867" />

<g
   id="g871">
</g>
<g
   id="g873">
</g>
<g
   id="g875">
</g>
<g
   id="g877">
</g>
<g
   id="g879">
</g>
<g
   id="g881">
</g>
<g
   id="g883">
</g>
<g
   id="g885">
</g>
<g
   id="g887">
</g>
<g
   id="g889">
</g>
<g
   id="g891">
</g>
<g
   id="g893">
</g>
<g
   id="g895">
</g>
<g
   id="g897">
</g>
<g
   id="g899">
</g>
</svg>
